#!OML:ASF F:\VICON\USERDATA\INSTALL\rory3\rory3.ASF
:FULLY-SPECIFIED
:DEGREES
1027
root 0.967455 17.7789 15.195 1.32695 -27.7267 -354.419
lowerback 1.13916 -0.865867 -5.5715
upperback -0.872058 -1.24327 1.00564
thorax -1.39808 -0.560269 4.19202
lowerneck -18.1051 -4.97548 -11.1909
upperneck 28.2481 -4.9971 4.0593
head 12.8632 -2.94175 2.62582
rclavicle -1.90585e-014 1.82882e-014
rhumerus -29.1653 -5.89883 -83.8819
rradius 43.9086
rwrist 14.6022
rhand -24.7799 3.95048
rfingers 7.12502
rthumb 1.72417 -26.0223
lclavicle -1.90585e-014 1.82882e-014
lhumerus -37.3945 24.8524 71.9379
lradius 16.418
lwrist -20.6577
lhand -14.1342 28.4113
lfingers 7.12502
lthumb 11.9997 58.0473
rfemur -10.9187 10.9753 14.3814
rtibia 35.8519
rfoot -10.1 17.2123
rtoes 18.7386
lfemur -10.1688 -2.0408 -24.6412
ltibia 20.1742
lfoot -8.03442 -16.2328
ltoes -3.9965
1028
root 0.986059 17.7872 15.2241 1.30793 -28.3112 -354.398
lowerback 1.12377 -0.87321 -5.56578
upperback -0.884413 -1.25231 1.01008
thorax -1.40117 -0.564466 4.19342
lowerneck -18.1273 -4.99947 -11.2857
upperneck 28.0132 -5.04625 4.2348
head 12.784 -2.9449 2.69869
rclavicle 5.57343e-014 -6.36111e-015
rhumerus -29.2673 -6.10695 -83.7863
rradius 43.4193
rwrist 14.5357
rhand -24.565 4.38663
rfingers 7.12502
rthumb 1.93166 -25.5844
lclavicle 5.57343e-014 -6.36111e-015
lhumerus -37.4263 24.8317 72.0034
lradius 16.8204
lwrist -20.3628
lhand -13.9205 28.9788
lfingers 7.12502
lthumb 12.2058 58.6027
rfemur -11.0212 11.0498 14.1635
rtibia 35.9067
rfoot -9.72924 17.6151
rtoes 18.8676
lfemur -9.99399 -1.53346 -24.7725
ltibia 20.015
lfoot -7.87134 -16.1198
ltoes -2.98577
1029
root 1.00584 17.7956 15.2473 1.36615 -28.8504 -354.487
lowerback 1.23374 -0.883915 -5.49914
upperback -0.95595 -1.27268 1.07
thorax -1.53453 -0.569397 4.22149
lowerneck -18.2447 -5.03659 -11.4851
upperneck 27.899 -5.08858 4.4649
head 12.7792 -2.95069 2.81145
rclavicle 2.08475e-014 -2.06736e-014
rhumerus -29.4586 -5.98031 -83.6906
rradius 43.0026
rwrist 14.4234
rhand -24.5147 4.32197
rfingers 7.12502
rthumb 1.98028 -25.6486
lclavicle 2.08475e-014 -2.06736e-014
lhumerus -37.4197 24.7748 72.1129
lradius 17.1917
lwrist -20.192
lhand -13.7218 29.2092
lfingers 7.12502
lthumb 12.3973 58.8216
rfemur -11.2067 11.1861 14.0633
rtibia 35.9782
rfoot -9.07173 17.9179
rtoes 20.1182
lfemur -9.86805 -1.14611 -24.7705
ltibia 19.8102
lfoot -7.54083 -16.0209
ltoes -2.10587
1030
root 1.02464 17.8026 15.2673 1.3451 -29.3376 -354.244
lowerback 1.20715 -0.904412 -5.70979
upperback -0.983963 -1.30419 1.01347
thorax -1.54211 -0.582267 4.28216
lowerneck -18.4148 -5.08909 -11.5688
upperneck 27.7067 -5.17508 4.68306
head 12.753 -2.96193 2.89093
rclavicle 5.50137e-014 2.38542e-015
rhumerus -29.5538 -5.83983 -83.6671
rradius 42.5512
rwrist 14.3587
rhand -24.44 4.1446
rfingers 7.12502
rthumb 2.05238 -25.8253
lclavicle 5.50137e-014 2.38542e-015
lhumerus -37.0996 24.7211 72.193
lradius 17.3016
lwrist -20.1767
lhand -13.3937 29.1896
lfingers 7.12502
lthumb 12.7137 58.7825
rfemur -11.4622 11.2034 13.6144
rtibia 36.0159
rfoot -8.26456 18.2491
rtoes 21.6806
lfemur -9.88007 -0.927585 -25.0863
ltibia 19.6972
lfoot -7.31632 -15.776
ltoes -1.9626
1031
root 1.04115 17.8107 15.2887 1.33351 -29.8431 -354.015
lowerback 1.07005 -0.927581 -5.92362
upperback -0.95404 -1.33056 0.96575
thorax -1.42788 -0.597731 4.35053
lowerneck -18.6169 -5.11763 -11.5477
upperneck 27.4864 -5.21806 4.78527
head 12.7108 -2.95664 2.91418
rclavicle -6.6891e-014 8.74653e-015
rhumerus -29.5035 -5.69695 -83.616
rradius 41.9894
rwrist 14.5399
rhand -24.1061 4.02539
rfingers 7.12502
rthumb 2.37487 -25.9411
lclavicle -6.6891e-014 8.74653e-015
lhumerus -36.4337 24.4295 72.4755
lradius 17.223
lwrist -19.5144
lhand -12.9203 29.3518
lfingers 7.12502
lthumb 13.17 58.9159
rfemur -11.704 11.2641 13.1902
rtibia 36.0298
rfoot -7.71708 18.5149
rtoes 22.1231
lfemur -9.87963 -0.72334 -25.3967
ltibia 19.6074
lfoot -7.32579 -15.4642
ltoes -2.55401
1032
root 1.05966 17.82 15.3154 1.45946 -30.4064 -354.286
lowerback 1.08145 -0.961079 -5.68454
upperback -0.95026 -1.37035 1.05187
thorax -1.42854 -0.619772 4.3059
lowerneck -18.8493 -5.10189 -11.3959
upperneck 27.3597 -5.17389 4.67276
head 12.6938 -2.92949 2.84766
rclavicle -1.06648e-013 -7.95139e-015
rhumerus -29.5547 -5.2953 -83.5855
rradius 41.4338
rwrist 14.8292
rhand -23.7355 3.47955
rfingers 7.12502
rthumb 2.73276 -26.4827
lclavicle -1.06648e-013 -7.95139e-015
lhumerus -35.8749 23.568 73.0424
lradius 17.4547
lwrist -17.9937
lhand -12.254 29.9173
lfingers 7.12502
lthumb 13.8122 59.4387
rfemur -11.8276 11.3873 13.2761
rtibia 36.0122
rfoot -7.20616 18.7351
rtoes 22.1896
lfemur -9.76158 -0.516324 -25.2563
ltibia 19.5462
lfoot -7.52332 -15.0436
ltoes -3.09449
1033
root 1.08039 17.825 15.3417 1.48725 -30.9116 -354.424
lowerback 1.18517 -0.97738 -5.5078
upperback -0.985463 -1.39531 1.08453
thorax -1.52325 -0.63028 4.24323
lowerneck -19.0327 -5.06982 -11.1771
upperneck 27.304 -5.11644 4.4867
head 12.6899 -2.9019 2.74534
rclavicle -1.35919e-013 1.35174e-014
rhumerus -29.735 -5.08541 -83.5081
rradius 40.8852
rwrist 15.1395
rhand -23.2108 2.90076
rfingers 7.12502
rthumb 3.2395 -27.0544
lclavicle -1.35919e-013 1.35174e-014
lhumerus -35.4576 22.4239 73.7266
lradius 17.8836
lwrist -16.5167
lhand -12.1717 29.9985
lfingers 7.12502
lthumb 13.8915 59.5145
rfemur -11.9041 11.3674 13.2176
rtibia 35.9501
rfoot -6.71909 19.1274
rtoes 22.0407
lfemur -9.66711 -0.321423 -25.262
ltibia 19.594
lfoot -7.77053 -14.6751
ltoes -3.21819
